<?xml version="1.0" encoding="utf-8"?>
<!-- Generator: Adobe Illustrator 27.5.0, SVG Export Plug-In . SVG Version: 6.00 Build 0)  -->
<svg version="1.1" xmlns="http://www.w3.org/2000/svg" xmlns:xlink="http://www.w3.org/1999/xlink" x="0px" y="0px"
	 viewBox="0 0 750 500" style="enable-background:new 0 0 750 500;" xml:space="preserve">
<g id="BACKGROUND">
	<rect style="fill:#FFFFFF;" width="750" height="500"/>
	<g>
		<rect style="fill:#FFFFFF;" width="750" height="500"/>
		<path style="fill:var(--dark-bg);" d="M340.32,0c-48.74,58.87-122.38,96.37-204.78,96.37C86.03,96.37,39.68,82.83,0,59.25V0H340.32z"/>
		<path style="fill:var(--dark-bg);" d="M750,406.89V500H606.18C641.99,454.7,692.25,421.35,750,406.89z"/>
	</g>
</g>
<g id="OBJECTS">
	<g>
		<text transform="matrix(1 0 0 1 30.9784 46.6017)"><tspan x="0" y="0" style="fill:var(--hover-bg); font-family:'Poppins', sans-serif; font-weight:600; font-size:15.841px; letter-spacing:1;">TIMELINE </tspan><tspan x="96.945" y="0" style="fill:var(--hover-bg); font-family:'Poppins', sans-serif; font-weight:300; font-size:15.841px; letter-spacing:1;">INFOGRAPHIC</tspan></text>
	</g>
	<g>
		<g>
			<g>
				<polygon style="fill:var(--card-bg);" points="248.547,294.435 246.897,292.898 61.63,120.358 65.037,116.699 248.655,287.702 
					365.841,185.397 486.803,281.947 697.887,111.742 701.026,115.635 486.818,288.358 365.984,191.908 				"/>
				<circle style="fill:var(--card-bg);" cx="699.457" cy="113.689" r="8.374"/>
				<circle style="fill:var(--card-bg);" cx="56.957" cy="113.689" r="8.374"/>
			</g>
		</g>
		<g>
			<g>
				
					<text transform="matrix(1 0 0 1 30.9783 281.1114)" style="fill:var(--hover-color); font-family:'Poppins', sans-serif; font-weight:700; font-size:12px; letter-spacing:1;">LOREM IPSUM</text>
			</g>
			<g>
				<rect x="32.235" y="293.757" style="fill:none;" width="136.84" height="45.613"/>
				<text transform="matrix(1 0 0 1 32.2345 299.6928)"><tspan x="0" y="0" style="fill:var(--hover-bg); font-family:'Poppins', sans-serif; font-size:8px;">Lorem ipsum dolor sit amet, </tspan><tspan x="0" y="9.601" style="fill:var(--hover-bg); font-family:'Poppins', sans-serif; font-size:8px;">consectetuer adipiscing elit, sed </tspan><tspan x="0" y="19.2" style="fill:var(--hover-bg); font-family:'Poppins', sans-serif; font-size:8px;">diam nonummy nibh euismod </tspan><tspan x="0" y="28.801" style="fill:var(--hover-bg); font-family:'Poppins', sans-serif; font-size:8px;">tincidunt ut laoreet dolore magna </tspan><tspan x="0" y="38.4" style="fill:var(--hover-bg); font-family:'Poppins', sans-serif; font-size:8px;">aliquam erat </tspan></text>
			</g>
		</g>
		<g>
			<g>
				
					<text transform="matrix(1 0 0 1 580.9257 281.1114)" style="fill:var(--hover-bg); font-family:'Poppins', sans-serif; font-weight:700; font-size:12px; letter-spacing:1;">LOREM IPSUM</text>
			</g>
			<g>
				<rect x="582.182" y="293.757" style="fill:none;" width="136.84" height="45.613"/>
				<text transform="matrix(1 0 0 1 582.1819 299.6928)"><tspan x="0" y="0" style="fill:var(--hover-bg); font-family:'Poppins', sans-serif; font-size:8px;">Lorem ipsum dolor sit amet, </tspan><tspan x="0" y="9.601" style="fill:var(--hover-bg); font-family:'Poppins', sans-serif; font-size:8px;">consectetuer adipiscing elit, sed </tspan><tspan x="0" y="19.2" style="fill:var(--hover-bg); font-family:'Poppins', sans-serif; font-size:8px;">diam nonummy nibh euismod </tspan><tspan x="0" y="28.801" style="fill:var(--hover-bg); font-family:'Poppins', sans-serif; font-size:8px;">tincidunt ut laoreet dolore magna </tspan><tspan x="0" y="38.4" style="fill:var(--hover-bg); font-family:'Poppins', sans-serif; font-size:8px;">aliquam erat </tspan></text>
			</g>
		</g>
		<g>
			<g>
				
					<text transform="matrix(1 0 0 1 194.2426 386.0484)" style="fill:var(--hover-color); font-family:'Poppins', sans-serif; font-weight:700; font-size:12px; letter-spacing:1;">LOREM IPSUM</text>
			</g>
			<g>
				<rect x="195.499" y="398.694" style="fill:none;" width="136.84" height="45.613"/>
				<text transform="matrix(1 0 0 1 195.4988 404.6297)"><tspan x="0" y="0" style="fill:var(--hover-bg); font-family:'Poppins', sans-serif; font-size:8px;">Lorem ipsum dolor sit amet, </tspan><tspan x="0" y="9.601" style="fill:var(--hover-bg); font-family:'Poppins', sans-serif; font-size:8px;">consectetuer adipiscing elit, sed </tspan><tspan x="0" y="19.2" style="fill:var(--hover-bg); font-family:'Poppins', sans-serif; font-size:8px;">diam nonummy nibh euismod </tspan><tspan x="0" y="28.801" style="fill:var(--hover-bg); font-family:'Poppins', sans-serif; font-size:8px;">tincidunt ut laoreet dolore magna </tspan><tspan x="0" y="38.4" style="fill:var(--hover-bg); font-family:'Poppins', sans-serif; font-size:8px;">aliquam erat </tspan></text>
			</g>
		</g>
		<g>
			<g>
				
					<text transform="matrix(1 0 0 1 436.0367 386.0484)" style="fill:var(--hover-color); font-family:'Poppins', sans-serif; font-weight:700; font-size:12px; letter-spacing:1;">LOREM IPSUM</text>
			</g>
			<g>
				<rect x="437.293" y="398.694" style="fill:none;" width="136.84" height="45.613"/>
				<text transform="matrix(1 0 0 1 437.293 404.6297)"><tspan x="0" y="0" style="fill:var(--hover-bg); font-family:'Poppins', sans-serif; font-size:8px;">>Lorem ipsum dolor sit amet, </tspan><tspan x="0" y="9.601" style="fill:var(--hover-bg); font-family:'Poppins', sans-serif; font-size:8px;">consectetuer adipiscing elit, sed </tspan><tspan x="0" y="19.2" style="fill:var(--hover-bg); font-family:'Poppins', sans-serif; font-size:8px;">diam nonummy nibh euismod </tspan><tspan x="0" y="28.801" style="fill:var(--hover-bg); font-family:'Poppins', sans-serif; font-size:8px;">tincidunt ut laoreet dolore magna </tspan><tspan x="0" y="38.4" style="fill:var(--hover-bg); font-family:'Poppins', sans-serif; font-size:8px;">aliquam erat </tspan></text>
				<tspan x="0" y="9.601" style="fill:var(--hover-bg); font-family:'Poppins', sans-serif; font-size:8px;">consectetuer adipiscing elit, sed </tspan><tspan x="0" y="19.2" style="fill:var(--hover-bg); font-family:'Poppins', sans-serif; font-size:8px;">diam nonummy nibh euismod </tspan><tspan x="0" y="28.801" style="fill:var(--hover-bg); font-family:'Poppins', sans-serif; font-size:8px;">tincidunt ut laoreet dolore magna </tspan><tspan x="0" y="38.4" style="fill:var(--hover-bg); font-family:'Poppins', sans-serif; font-size:8px;">aliquam erat </tspan></text>
			</g>
		</g>
		<g>
			<g>
				
					<text transform="matrix(1 0 0 1 30.9783 386.0484)" style="fill:var(--hover-color); font-family:'Poppins', sans-serif; font-weight:700; font-size:12px; letter-spacing:1;">LOREM IPSUM</text>
			</g>
			<g>
				<rect x="32.235" y="398.694" style="fill:none;" width="136.84" height="45.613"/>
				<text transform="matrix(1 0 0 1 32.2345 404.6297)"><tspan x="0" y="0" style="fill:var(--hover-bg); font-family:'Poppins', sans-serif; font-size:8px;">Lorem ipsum dolor sit amet, </tspan><tspan x="0" y="9.601" style="fill:var(--hover-bg); font-family:'Poppins', sans-serif; font-size:8px;">consectetuer adipiscing elit, sed </tspan><tspan x="0" y="19.2" style="fill:var(--hover-bg); font-family:'Poppins', sans-serif; font-size:8px;">diam nonummy nibh euismod </tspan><tspan x="0" y="28.801" style="fill:var(--hover-bg); font-family:'Poppins', sans-serif; font-size:8px;">tincidunt ut laoreet dolore magna </tspan><tspan x="0" y="38.4" style="fill:var(--hover-bg); font-family:'Poppins', sans-serif; font-size:8px;">aliquam erat </tspan></text>
			</g>
		</g>
		<g>
			<g>
				
					<text transform="matrix(1 0 0 1 580.9257 386.0484)" style="fill:var(--hover-bg); font-family:'Poppins', sans-serif; font-weight:700; font-size:12px; letter-spacing:1;">LOREM IPSUM</text>
			</g>
			<g>
				<rect x="582.182" y="398.694" style="fill:none;" width="136.84" height="45.613"/>
				<text transform="matrix(1 0 0 1 582.1819 404.6297)"><tspan x="0" y="0" style="fill:var(--hover-bg); font-family:'Poppins', sans-serif; font-size:8px;">Lorem ipsum dolor sit amet, </tspan><tspan x="0" y="9.601" style="fill:var(--hover-bg); font-family:'Poppins', sans-serif; font-size:8px;">consectetuer adipiscing elit, sed </tspan><tspan x="0" y="19.2" style="fill:var(--hover-bg); font-family:'Poppins', sans-serif; font-size:8px;">diam nonummy nibh euismod </tspan><tspan x="0" y="28.801" style="fill:var(--hover-bg); font-family:'Poppins', sans-serif; font-size:8px;">tincidunt ut laoreet dolore magna </tspan><tspan x="0" y="38.4" style="fill:var(--hover-bg); font-family:'Poppins', sans-serif; font-size:8px;">aliquam erat </tspan></text>
			</g>
		</g>
		<g>
			<g>
				<text transform="matrix(1 0 0 1 194.2426 281.1114)" style="fill:var(--hover-color); font-family:'Poppins', sans-serif; font-weight:700; font-size:12px; letter-spacing:1;">LOREM IPSUM</text>
			</g>
			<g>
				<rect x="195.499" y="293.757" style="fill:none;" width="136.84" height="45.613"/>
				<text transform="matrix(1 0 0 1 195.4988 299.6928)"><tspan x="0" y="0" style="fill:var(--hover-bg); font-family:'Poppins', sans-serif; font-size:8px;">Lorem ipsum dolor sit amet, </tspan><tspan x="0" y="9.601" style="fill:var(--hover-bg); font-family:'Poppins', sans-serif; font-size:8px;">consectetuer adipiscing elit, sed </tspan><tspan x="0" y="19.2" style="fill:var(--hover-bg); font-family:'Poppins', sans-serif; font-size:8px;">diam nonummy nibh euismod </tspan><tspan x="0" y="28.801" style="fill:var(--hover-bg); font-family:'Poppins', sans-serif; font-size:8px;">tincidunt ut laoreet dolore magna </tspan><tspan x="0" y="38.4" style="fill:var(--hover-bg); font-family:'Poppins', sans-serif; font-size:8px;">aliquam erat </tspan></text>
			</g>
		</g>
		<g>
			<g>
				
					<text transform="matrix(1 0 0 1 436.0367 281.1114)" style="fill:var(--hover-color); font-family:'Poppins', sans-serif; font-weight:700; font-size:12px; letter-spacing:1;">LOREM IPSUM</text>
			</g>
			<g>
				<rect x="437.293" y="293.757" style="fill:none;" width="136.84" height="45.613"/>
				<text transform="matrix(1 0 0 1 437.293 299.6928)"><tspan x="0" y="0" style="fill:var(--hover-bg); font-family:'Poppins', sans-serif; font-size:8px;">Lorem ipsum dolor sit amet, </tspan><tspan x="0" y="9.601" style="fill:var(--hover-bg); font-family:'Poppins', sans-serif; font-size:8px;">consectetuer adipiscing elit, sed </tspan><tspan x="0" y="19.2" style="fill:var(--hover-bg); font-family:'Poppins', sans-serif; font-size:8px;">diam nonummy nibh euismod </tspan><tspan x="0" y="28.801" style="fill:var(--hover-bg); font-family:'Poppins', sans-serif; font-size:8px;">tincidunt ut laoreet dolore magna </tspan><tspan x="0" y="38.4" style="fill:var(--hover-bg); font-family:'Poppins', sans-serif; font-size:8px;">aliquam erat </tspan></text>
			</g>
		</g>
	</g>
</g>
</svg>
